<svg width="331" height="84" viewBox="0 0 331 84" fill="none" xmlns="http://www.w3.org/2000/svg">
<path d="M212.011 82.1112C211.198 82.1112 210.532 81.8377 210.014 81.2908C209.497 80.7439 209.238 80.0407 209.238 79.1813V24.0993C209.238 23.2399 209.497 22.5367 210.014 21.9898C210.532 21.4429 211.198 21.1694 212.011 21.1694H225.101C225.84 21.1694 226.469 21.4429 226.987 21.9898C227.578 22.5367 227.874 23.2399 227.874 24.0993V79.1813C227.874 80.0407 227.578 80.7439 226.987 81.2908C226.469 81.8377 225.84 82.1112 225.101 82.1112H212.011ZM211.552 18.982C210.738 18.982 210.072 18.7085 209.555 18.1616C209.037 17.6147 208.778 16.9115 208.778 16.0521V3.04717C208.778 2.18774 209.037 1.48457 209.555 0.93765C210.072 0.31261 210.738 9.00588e-05 211.552 9.00588e-05L224.99 0C225.803 0 226.469 0.31252 226.987 0.93756C227.578 1.48448 227.874 2.18765 227.874 3.04708V16.052C227.874 16.9114 227.578 17.6146 226.987 18.1615C226.469 18.7084 225.803 18.9819 224.99 18.9819L211.552 18.982Z" fill="white"/>
<path d="M53.7636 83.3843C49.5851 83.3843 45.8321 82.6142 42.5047 81.074C39.2547 79.4568 36.6625 77.3004 34.728 74.6051C32.7934 71.9097 31.8262 68.8677 31.8262 65.4792C31.8262 60.0115 34.0702 55.6988 38.5583 52.5414C43.0464 49.3069 49.0047 47.1121 56.4333 45.9569L70.9422 43.7621V42.1449C70.9422 39.3725 70.3618 37.2547 69.2011 35.7915C68.0404 34.3283 65.9124 33.5967 62.8172 33.5967C60.6505 33.5967 58.8708 34.0202 57.4779 34.8674C56.1624 35.7145 55.1178 36.8696 54.344 38.3329C53.6476 39.334 52.6803 39.8346 51.4422 39.8346H38.4422C37.591 39.8346 36.9333 39.6035 36.469 39.1415C36.0047 38.6024 35.8113 37.9863 35.8887 37.2932C35.8887 35.907 36.3916 34.3283 37.3976 32.557C38.4809 30.7088 40.1059 28.899 42.2726 27.1277C44.4392 25.3565 47.225 23.8933 50.6297 22.7381C54.0345 21.583 58.1357 21.0054 62.9333 21.0054C67.963 21.0054 72.2577 21.583 75.8172 22.7381C79.3767 23.8933 82.2398 25.5105 84.4065 27.5898C86.6505 29.6691 88.3142 32.1335 89.3975 34.9829C90.4808 37.7553 91.0225 40.8357 91.0225 44.2242V79.3412C91.0225 80.1884 90.713 80.8815 90.0939 81.4205C89.5523 81.9596 88.8945 82.2292 88.1207 82.2292H74.6565C73.8053 82.2292 73.1088 81.9596 72.5672 81.4205C72.0255 80.8815 71.7547 80.1884 71.7547 79.3412V75.2982C70.7487 76.7614 69.3946 78.1091 67.6922 79.3412C65.9898 80.5734 63.9779 81.5361 61.6565 82.2292C59.4124 82.9993 56.7815 83.3843 53.7636 83.3843ZM59.219 70.2154C61.463 70.2154 63.4749 69.7534 65.2547 68.8292C67.1118 67.8281 68.5434 66.3264 69.5493 64.3241C70.6327 62.2448 71.1743 59.6649 71.1743 56.5845V54.9672L61.3083 56.7C57.6714 57.3161 55.0017 58.2787 53.2994 59.5879C51.6744 60.8201 50.8619 62.2833 50.8619 63.9775C50.8619 65.2867 51.2488 66.4034 52.0226 67.3275C52.7964 68.2516 53.8023 68.9832 55.0404 69.5223C56.2785 69.9844 57.6714 70.2154 59.219 70.2154Z" fill="white"/>
<path d="M119.583 83.6483C114.653 83.6483 110.378 82.8629 106.758 81.292C103.214 79.6426 100.48 77.1293 98.5539 73.7519C96.6281 70.296 95.6653 65.8583 95.6653 60.4389V37.8185H86.6526C85.8053 37.8185 85.0735 37.5436 84.4573 36.9938C83.918 36.444 83.6484 35.7371 83.6484 34.8731V25.3301C83.6484 24.4662 83.918 23.7593 84.4573 23.2095C85.0735 22.6597 85.8053 22.3848 86.6526 22.3848H95.6653V2.94536C95.6653 2.08139 95.9349 1.3745 96.4741 0.824705C97.0903 0.274902 97.7836 0 98.5539 0H111.957C112.805 0 113.498 0.274902 114.037 0.824705C114.576 1.3745 114.846 2.08139 114.846 2.94536V22.3848H129.289C130.137 22.3848 130.83 22.6597 131.369 23.2095C131.908 23.7593 132.178 24.4662 132.178 25.3301V34.8731C132.178 35.7371 131.908 36.444 131.369 36.9938C130.83 37.5436 130.137 37.8185 129.289 37.8185H114.846V58.7895C114.846 61.4599 115.347 63.5806 116.348 65.1514C117.349 66.7223 119.044 67.5077 121.432 67.5077H130.329C131.177 67.5077 131.87 67.7826 132.409 68.3324C132.948 68.8822 133.218 69.5891 133.218 70.4531V80.703C133.218 81.5669 132.948 82.2738 132.409 82.8236C131.87 83.3734 131.177 83.6483 130.329 83.6483H119.583Z" fill="white"/>
<path d="M288.706 81.4748C287.853 81.4748 287.155 81.2034 286.612 80.6607C286.069 80.1181 285.798 79.4203 285.798 78.5676V23.9126C285.798 23.1373 286.069 22.4783 286.612 21.9357C287.155 21.3155 287.853 21.0054 288.706 21.0054H302.085C302.938 21.0054 303.636 21.3155 304.179 21.9357C304.722 22.4783 304.993 23.1373 304.993 23.9126V28.564C307.087 26.1608 309.569 24.3002 312.439 22.9823C315.386 21.6643 318.682 21.0054 322.327 21.0054H327.446C328.221 21.0054 328.881 21.2767 329.424 21.8194C330.044 22.3621 330.354 23.0598 330.354 23.9126V35.8901C330.354 36.6654 330.044 37.3631 329.424 37.9833C328.881 38.526 328.221 38.7973 327.446 38.7973H316.161C312.982 38.7973 310.5 39.6889 308.716 41.4719C307.01 43.1775 306.157 45.6195 306.157 48.798V78.5676C306.157 79.4203 305.846 80.1181 305.226 80.6607C304.683 81.2034 303.985 81.4748 303.132 81.4748H288.706Z" fill="white"/>
<path d="M189.342 82.1111C188.508 82.1111 187.826 81.8412 187.296 81.3015C186.765 80.7618 186.5 80.0679 186.5 79.2198V2.89123C186.5 2.04314 186.765 1.34924 187.296 0.809549C187.826 0.26985 188.508 0 189.342 0H202.754C203.588 0 204.27 0.26985 204.8 0.809549C205.33 1.34924 205.596 2.04314 205.596 2.89123V79.2198C205.596 80.0679 205.33 80.7618 204.8 81.3015C204.27 81.8412 203.588 82.1111 202.754 82.1111H189.342Z" fill="white"/>
<path d="M158.551 83.3843C149.517 83.3843 142.32 80.92 136.961 75.9913C131.601 71.0625 128.807 63.7465 128.577 54.0431C128.577 53.504 128.577 52.8109 128.577 51.9638C128.577 51.1167 128.577 50.4621 128.577 50C128.807 43.9162 130.147 38.7179 132.597 34.4053C135.123 30.0157 138.568 26.7042 142.932 24.4709C147.373 22.1605 152.541 21.0054 158.436 21.0054C165.174 21.0054 170.724 22.3531 175.088 25.0485C179.529 27.7438 182.859 31.4019 185.08 36.0225C187.3 40.6432 188.41 45.9184 188.41 51.8483V54.6207C188.41 55.4678 188.104 56.1609 187.491 56.7C186.955 57.2391 186.305 57.5086 185.539 57.5086H148.789C148.789 57.5856 148.789 57.7011 148.789 57.8552C148.789 58.0092 148.789 58.1632 148.789 58.3172C148.866 60.5505 149.249 62.5913 149.938 64.4396C150.627 66.2879 151.699 67.7511 153.153 68.8292C154.608 69.9074 156.369 70.4465 158.436 70.4465C159.967 70.4465 161.231 70.2154 162.226 69.7534C163.298 69.2143 164.178 68.6367 164.867 68.0206C165.556 67.3275 166.092 66.7499 166.475 66.2879C167.164 65.5178 167.7 65.0557 168.083 64.9017C168.542 64.6706 169.231 64.5551 170.15 64.5551H184.391C185.156 64.5551 185.769 64.7861 186.228 65.2482C186.764 65.6333 186.994 66.2109 186.917 66.981C186.84 68.2902 186.19 69.8689 184.965 71.7171C183.74 73.5654 181.941 75.4137 179.567 77.2619C177.27 79.0332 174.361 80.4964 170.839 81.6516C167.317 82.8067 163.221 83.3843 158.551 83.3843ZM148.789 46.0725H168.198V45.8414C168.198 43.3771 167.815 41.2208 167.049 39.3725C166.36 37.5242 165.25 36.0995 163.719 35.0984C162.264 34.0972 160.503 33.5967 158.436 33.5967C156.369 33.5967 154.608 34.0972 153.153 35.0984C151.775 36.0995 150.703 37.5242 149.938 39.3725C149.172 41.2208 148.789 43.3771 148.789 45.8414V46.0725Z" fill="white"/>
<path d="M258.167 83.3843C249.036 83.3843 241.763 80.92 236.347 75.9913C230.93 71.0625 228.106 63.7465 227.874 54.0431C227.874 53.504 227.874 52.8109 227.874 51.9638C227.874 51.1167 227.874 50.4621 227.874 50C228.106 43.9162 229.46 38.7179 231.936 34.4053C234.49 30.0157 237.972 26.7042 242.382 24.4709C246.87 22.1605 252.093 21.0054 258.051 21.0054C264.86 21.0054 270.47 22.3531 274.88 25.0485C279.368 27.7438 282.734 31.4019 284.978 36.0225C287.221 40.6432 288.343 45.9184 288.343 51.8483V54.6207C288.343 55.4678 288.034 56.1609 287.415 56.7C286.873 57.2391 286.216 57.5086 285.442 57.5086H248.301C248.301 57.5856 248.301 57.7011 248.301 57.8552C248.301 58.0092 248.301 58.1632 248.301 58.3172C248.379 60.5505 248.766 62.5913 249.462 64.4396C250.158 66.2879 251.242 67.7511 252.712 68.8292C254.182 69.9074 255.962 70.4465 258.051 70.4465C259.598 70.4465 260.875 70.2154 261.881 69.7534C262.964 69.2143 263.854 68.6367 264.55 68.0206C265.247 67.3275 265.788 66.7499 266.175 66.2879C266.872 65.5178 267.413 65.0557 267.8 64.9017C268.264 64.6706 268.961 64.5551 269.889 64.5551H284.281C285.055 64.5551 285.674 64.7861 286.138 65.2482C286.68 65.6333 286.912 66.2109 286.835 66.981C286.757 68.2902 286.099 69.8689 284.861 71.7171C283.623 73.5654 281.805 75.4137 279.406 77.2619C277.085 79.0332 274.145 80.4964 270.586 81.6516C267.026 82.8067 262.887 83.3843 258.167 83.3843ZM248.301 46.0725H267.916V45.8414C267.916 43.3771 267.529 41.2208 266.755 39.3725C266.059 37.5242 264.937 36.0995 263.39 35.0984C261.919 34.0972 260.14 33.5967 258.051 33.5967C255.962 33.5967 254.182 34.0972 252.712 35.0984C251.319 36.0995 250.236 37.5242 249.462 39.3725C248.688 41.2208 248.301 43.3771 248.301 45.8414V46.0725Z" fill="white"/>
<path d="M24.6638 30.9809C23.9742 30.9809 23.3996 30.735 22.9398 30.2432C22.5567 29.7515 22.4035 29.0548 22.4801 28.1532L25.9281 4.17995C26.0813 3.11448 26.4644 2.17194 27.0774 1.35234C27.767 0.450779 28.7631 0 30.0657 0H43.5129C44.1258 0 44.6239 0.245879 45.007 0.737637C45.4667 1.2294 45.6966 1.80312 45.6966 2.4588C45.6966 2.95056 45.62 3.40134 45.4667 3.81114L36.8467 27.5385C36.5402 28.3581 36.0805 29.1368 35.4675 29.8744C34.8546 30.612 33.8968 30.9809 32.5942 30.9809H24.6638Z" fill="white"/>
<path d="M2.8814 83.6483C2.03619 83.6483 1.34466 83.3734 0.806793 82.8236C0.268931 82.2738 0 81.5669 0 80.703V2.94536C0 2.08139 0.268931 1.3745 0.806793 0.824705C1.34466 0.274902 2.03619 0 2.8814 0H16.4816C17.3268 0 18.0184 0.274902 18.5562 0.824705C19.0941 1.3745 19.363 2.08139 19.363 2.94536V80.703C19.363 81.5669 19.0941 82.2738 18.5562 82.8236C18.0184 83.3734 17.3268 83.6483 16.4816 83.6483H2.8814Z" fill="white"/>
</svg>
